<svg xmlns="http://www.w3.org/2000/svg" xmlns:svgjs="http://svgjs.com/svgjs" xmlns:xlink="http://www.w3.org/1999/xlink" width="288" height="288"><svg xmlns="http://www.w3.org/2000/svg" width="288" height="288" version="1.0" viewBox="0 0 269 188"><g fill="#ffa88c" class="color000 svgShape" transform="matrix(.1 0 0 -.1 0 188)"><path d="M1365 1261c4-7 70-11 187-11 100 0 179 2 177 4-2 2-87 7-188 10-129 5-181 4-176-3zM1101 1249c-52-5-98-12-103-17-5-5 15-5 44-1 29 4 83 8 121 8 37 1 67 5 67 11 0 6-8 9-17 9-10-1-60-6-112-10zM815 1204c-71-12-188-28-260-34-72-7-148-15-170-19-39-7-38-8 30-16 63-7 67-9 43-19-31-11-37-26-11-26 14 0 13-3-5-16-12-8-27-12-34-8-7 5-8 3-3-6 5-9 2-10-14-5-13 4-21 2-21-5 0-8 11-10 33-7 71 13 152 17 132 8-11-5-30-10-42-10-13-1-23-5-23-11 0-5-25-10-57-10-60 0-65-8-11-20l33-7-30-7c-16-4-37-11-45-15-9-5-31-12-49-16-32-7-101-42-101-52 0-2 8-3 18-2 28 2 42 0 42-9 0-12-73-42-102-42-13 0-28-3-31-7-11-11 30-33 49-26 11 4 15 2 11-4-4-6 4-8 21-5 23 4 25 3 15-10-7-8-10-18-6-21 3-4-8-7-26-7-19 0-30-4-26-10 3-5 20-10 37-10 36 0 30-10-15-27-18-6-24-12-14-12 9-1 17-5 17-11 0-5-8-10-17-10-10 0-24-4-31-8-7-5 26-6 74-4 65 4 88 1 94-9 13-21 101-14 265 19 68 14 132 21 199 19 96-1 98-2 65-16-19-7-47-17-64-20-21-5-30-13-30-26 0-16 8-21 40-23 22-2 56 1 75 7 19 5 67 12 105 16 39 3 106 10 150 15 44 5 125 12 180 14 55 3 109 8 119 12 24 9 486-3 641-18 153-13 257-13 281 0 17 10 15 11-13 12-17 0-35 4-38 10-4 6 7 8 27 4 26-4 30-3 18 6-12 9-8 10 19 5 23-5 31-4 27 4-4 6-15 11-24 11-16 1-15 1 1 11 9 5 21 8 26 5 16-10 42 6 37 21-4 10 2 17 15 20 21 6 21 6-2 19l-24 13 23 2c12 1 27 3 32 4 6 1 16 3 23 4 7 1 2 10-12 22l-24 20 36-3c20-1 39 1 43 5 4 4-2 7-14 7-11 0-24 5-27 10-3 6 1 10 9 10 9 0 16 5 16 10 0 6 6 10 14 10 8 0 16 7 20 15 4 11-2 15-22 16-15 0-36 4-47 9-19 8-19 9 3 9 13 1 20 5 17 11-3 6 2 10 12 11 17 0 17 1 0 8-10 4-18 11-17 15 1 5-4 13-12 17-9 6-3 9 17 10l30 1-30 10c-16 6-32 14-35 18-3 4-44 13-92 20-49 7-85 16-82 21 3 5-12 9-33 9-21 0-56 3-78 7l-40 7 30 7c24 5 19 7-24 8-29 0-92 6-140 11-47 6-131 15-186 20-91 8-85 8 70 5 106-2 155 0 130 5-27 6-5 7 70 5 96-3 102-2 45 5-202 27-875 39-1079 20-74-7-97-6-105 4-9 11-35 9-141-10zm-368-60c-3-3-12-4-19-1-8 3-5 6 6 6 11 1 17-2 13-5zm68-64c-11-5-27-9-35-9-9 0-8 4 5 9 11 5 27 9 35 9 9 0 8-4-5-9z" class="color000 svgShape"/></g></svg></svg>