<svg xmlns="http://www.w3.org/2000/svg" xmlns:svgjs="http://svgjs.com/svgjs" xmlns:xlink="http://www.w3.org/1999/xlink" width="288" height="288"><svg xmlns="http://www.w3.org/2000/svg" width="288" height="288" version="1.0" viewBox="0 0 243 65"><g fill="#ffa88c" class="color000 svgShape" transform="matrix(.1 0 0 -.1 0 65)"><path d="M1260 640c24-8 328-14 319-6-2 2-80 6-174 9-97 3-159 2-145-3zM920 620c-19-4 15-5 75-2 61 3 112 6 114 8 8 7-153 2-189-6zM1180 599c-135-3-269-10-299-14-43-6-52-5-46 5 9 15-73 8-185-15-36-7-130-19-210-26-92-8-136-15-120-20l25-7-25-2c-21-2-19-4 10-10l35-6-27-8c-52-15-32-27 42-27 42 1 24-13-30-23-26-5-31-4-20 3 8 6 11 11 5 11-5-1-19-7-29-15-11-8-28-13-38-9-10 3-18 0-18-7 0-7 10-10 28-6 58 12 157 17 137 8-11-5-30-10-42-10-13-1-23-5-23-11 0-5-23-10-51-10-31 0-48-4-44-10 3-5 17-10 31-10 13 0 24-4 24-10 0-5-13-10-29-10-17 0-32-4-35-9-4-5-25-12-48-16-24-4-58-18-77-31l-35-23 29 2c36 3 45-20 11-29-14-3-26-10-26-15 0-5-15-9-32-9-44 0-67-14-41-25 10-4 33-8 51-10 39-2 44-7 36-29-4-10-18-16-36-16-17 0-27-4-23-10 3-5 20-10 37-10 26 0 29-2 18-15-7-8-24-16-39-16-17-1-20-3-8-6 20-5 22-19 5-26-7-3 22-6 65-6 47-1 76-5 72-10-9-16 60-24 85-11 12 6 27 9 35 7 7-3 62 5 123 19 78 16 142 23 214 23 108 0 111-5 20-34-38-13-52-22-50-34 4-20 69-27 107-12 14 6 83 15 152 21 69 6 135 12 147 15 140 26 690 29 927 3 121-13 245-12 259 2 7 7-1 10-22 10-18 0-32 5-32 10 0 6 11 8 26 4 20-5 25-4 19 6-6 9 1 11 26 6l34-6-30 15c-17 8-23 15-15 16 8 1 25 3 36 4 31 3 44 14 37 30-3 10 1 15 13 15 18 1 18 1 0 15-18 13-16 15 22 21 43 7 46 19 8 34-16 7-10 9 29 11 28 1 41 3 30 6-28 7-43 23-22 23 9 0 17 5 17 10 0 6 7 10 15 10 28 0 16 30-12 31-16 0-37 4-48 9-17 7-16 9 10 9 23 1 27 4 15 11-12 8-10 10 10 11 21 1 22 2 5 6-26 6-44 23-25 23 13 0 13 2 0 10-12 7-8 10 15 11l30 1-30 10c-16 6-32 14-35 18-3 4-44 13-92 20-49 7-88 16-88 21 0 5-31 9-70 9-67 0-95 14-47 23 12 2-3 5-33 6-30 0-91 5-135 11-44 5-125 13-180 16-61 4-92 9-80 14 11 4 65 4 120-1 55-4 123-8 150-7l50 1-40 7c-38 7-37 7 19 9 33 0 57 3 55 5-4 3-55 6-399 22-69 3-132 7-140 8-8 1-125-1-260-5z" class="color000 svgShape"/><path d="M2008 563c12-2 32-2 45 0 12 2 2 4-23 4-25 0-35-2-22-4zM243 523c9-2 25-2 35 0 9 3 1 5-18 5-19 0-27-2-17-5z" class="color000 svgShape"/></g></svg></svg>